<svg width="40" height="40" viewBox="0 0 40 40" fill="none" xmlns="http://www.w3.org/2000/svg">
<path d="M0 1.71429C0 1.25963 0.180624 0.823593 0.502138 0.502102C0.823651 0.180612 1.25972 0 1.71441 0H2.98992C5.1615 0 6.46445 1.46057 7.20736 2.81829C7.70339 3.72343 8.06228 4.77257 8.34344 5.72343L8.57203 5.71429H37.1409C39.0382 5.71429 40.4097 7.52914 39.8885 9.35543L35.7099 24.0046C35.3353 25.3185 34.5427 26.4746 33.4521 27.2979C32.3616 28.1211 31.0325 28.5666 29.6661 28.5669H16.0697C14.6924 28.5669 13.3533 28.1147 12.2581 27.2797C11.1628 26.4447 10.3722 25.2732 10.0076 23.9451L8.27029 17.6091L5.39009 7.89943L5.3878 7.88114C5.03121 6.58514 4.69747 5.37143 4.19915 4.46629C3.7214 3.58629 3.33738 3.42857 2.99221 3.42857H1.71441C1.25972 3.42857 0.823651 3.24796 0.502138 2.92647C0.180624 2.60498 0 2.16894 0 1.71429ZM14.8582 40C16.0707 40 17.2335 39.5184 18.0909 38.6611C18.9483 37.8038 19.4299 36.641 19.4299 35.4286C19.4299 34.2162 18.9483 33.0534 18.0909 32.1961C17.2335 31.3388 16.0707 30.8571 14.8582 30.8571C13.6457 30.8571 12.4828 31.3388 11.6255 32.1961C10.7681 33.0534 10.2864 34.2162 10.2864 35.4286C10.2864 36.641 10.7681 37.8038 11.6255 38.6611C12.4828 39.5184 13.6457 40 14.8582 40ZM30.8593 40C32.0718 40 33.2346 39.5184 34.092 38.6611C34.9494 37.8038 35.431 36.641 35.431 35.4286C35.431 34.2162 34.9494 33.0534 34.092 32.1961C33.2346 31.3388 32.0718 30.8571 30.8593 30.8571C29.6468 30.8571 28.484 31.3388 27.6266 32.1961C26.7692 33.0534 26.2875 34.2162 26.2875 35.4286C26.2875 36.641 26.7692 37.8038 27.6266 38.6611C28.484 39.5184 29.6468 40 30.8593 40Z" fill="black"/>
</svg>
