<svg width="40" height="40" viewBox="0 0 40 40" fill="none" xmlns="http://www.w3.org/2000/svg">
<path d="M36.6673 20.1335C36.6479 24.2256 35.1237 28.1675 32.3852 31.2082C29.6466 34.2489 25.8851 36.1758 21.8173 36.6218V24.6668H25.734C25.9063 24.6677 26.0731 24.6055 26.2027 24.4919C26.3322 24.3783 26.4157 24.2211 26.4373 24.0501L26.8606 20.3801C26.8759 20.2838 26.87 20.1852 26.8433 20.0914C26.8165 19.9976 26.7696 19.9107 26.7058 19.8369C26.642 19.7631 26.5628 19.7041 26.4738 19.6641C26.3849 19.624 26.2882 19.6039 26.1907 19.6051H21.8173V16.6051C21.8173 15.2118 22.2057 14.2601 24.1973 14.2601H26.0507C26.2347 14.2553 26.4096 14.1787 26.5379 14.0467C26.6663 13.9146 26.7378 13.7376 26.7373 13.5535V10.3968C26.733 10.2127 26.6568 10.0377 26.525 9.90903C26.3933 9.7804 26.2164 9.70841 26.0323 9.70846H23.034C22.1918 9.64824 21.3466 9.77253 20.5573 10.0727C19.7681 10.3728 19.0539 10.8415 18.4645 11.4461C17.8751 12.0508 17.4248 12.7767 17.1449 13.5733C16.865 14.37 16.7623 15.2181 16.844 16.0585V19.5851H13.899C13.807 19.5851 13.716 19.6035 13.6313 19.6392C13.5465 19.675 13.4698 19.7273 13.4057 19.7932C13.3415 19.859 13.2912 19.9371 13.2577 20.0227C13.2242 20.1084 13.2082 20.1999 13.2107 20.2918V23.9585C13.2107 24.141 13.2832 24.3161 13.4123 24.4452C13.5413 24.5743 13.7164 24.6468 13.899 24.6468H16.844V36.3751C13.0623 35.6458 9.64987 33.6292 7.18692 30.6683C4.72397 27.7073 3.36251 23.9848 3.33398 20.1335C3.33398 15.7132 5.08993 11.474 8.21554 8.34835C11.3411 5.22274 15.5804 3.4668 20.0007 3.4668C24.4209 3.4668 28.6602 5.22274 31.7858 8.34835C34.9114 11.474 36.6673 15.7132 36.6673 20.1335Z" fill="white"/>
</svg>
