<svg width="80" height="80" viewBox="0 0 80 80" fill="none" xmlns="http://www.w3.org/2000/svg">
<path d="M26.8341 67.6921C26.6592 66.9517 26.6056 66.1885 26.6754 65.4321C26.6799 65.3822 26.699 65.3347 26.7302 65.2955C26.7614 65.2563 26.8034 65.227 26.8512 65.2113C27.9307 64.8576 29.1744 64.92 30.456 65.4095C32.1105 66.0378 33.6405 67.3068 34.7648 68.9834C35.8892 70.66 36.4795 72.5545 36.4283 74.3153C36.384 75.807 35.8856 77.0618 35.0128 77.9345C34.9775 77.9703 34.9324 77.995 34.8831 78.0055C34.8337 78.016 34.7823 78.0118 34.7352 77.9936C34.6881 77.9754 34.6472 77.9439 34.6177 77.9029C34.5882 77.8619 34.5712 77.8133 34.569 77.763C34.5493 77.2655 34.4819 76.7709 34.3679 76.2858C34.0112 74.7807 33.0147 72.7479 30.2895 71.6126C28.4417 70.8387 27.2789 69.5205 26.8341 67.6921ZM33.3353 78.9608C33.3829 78.9451 33.4248 78.9159 33.456 78.8768C33.4872 78.8378 33.5063 78.7904 33.5109 78.7406C33.5813 77.9841 33.5277 77.2205 33.3524 76.48C32.9075 74.6516 31.7447 73.3334 29.8976 72.5629C27.1725 71.427 26.1759 69.3948 25.8191 67.8897C25.7052 67.4046 25.6378 66.91 25.6181 66.4126C25.6167 66.3613 25.6 66.3115 25.5702 66.2696C25.5404 66.2277 25.4988 66.1955 25.4507 66.1772C25.4026 66.1588 25.3502 66.1551 25.3001 66.1665C25.2501 66.178 25.2046 66.204 25.1696 66.2414C24.5177 66.8919 24.0777 67.7548 23.8771 68.7699C23.8072 69.1292 23.767 69.4937 23.7569 69.8598C23.7055 71.6213 24.296 73.5151 25.4204 75.1917C26.5447 76.8683 28.0759 78.1376 29.7292 78.7657C31.0118 79.2501 32.2558 79.3145 33.3353 78.9608Z" fill="white"/>
<path d="M17.2549 63.8229C17.7898 63.307 18.4017 62.892 19.0671 62.594C19.111 62.5743 19.1598 62.5692 19.2075 62.5792C19.2552 62.5892 19.2997 62.6139 19.3357 62.6504C20.1483 63.4767 20.6918 64.6538 20.8967 66.0703C21.1643 67.8974 20.8369 69.9164 19.9748 71.7565C19.1126 73.5966 17.8126 75.0485 16.317 75.8446C15.0496 76.5182 13.7626 76.6596 12.6154 76.2725C12.5686 76.2571 12.5264 76.2273 12.494 76.1868C12.4616 76.1464 12.4404 76.097 12.4331 76.0448C12.4257 75.9926 12.4325 75.9398 12.4526 75.8929C12.4727 75.8461 12.5052 75.8072 12.5462 75.781C12.9523 75.5245 13.3332 75.2255 13.6839 74.888C14.7705 73.8381 15.9915 71.9453 15.6347 68.8879C15.3962 66.8128 15.9405 65.1089 17.2549 63.8229ZM10.9546 75.2168C10.9904 75.2531 11.0349 75.2779 11.0825 75.2879C11.1301 75.2979 11.1787 75.2929 11.2226 75.2733C11.8884 74.9758 12.5006 74.5607 13.0353 74.0443C14.3497 72.7582 14.8941 71.0543 14.653 68.9815C14.2968 65.9239 15.5172 64.0313 16.6038 62.9814C16.9545 62.6439 17.3354 62.3449 17.7415 62.0884C17.7837 62.0626 17.8173 62.0233 17.838 61.9758C17.8588 61.9282 17.8657 61.8744 17.858 61.8213C17.8503 61.7681 17.8283 61.718 17.7948 61.6773C17.7612 61.6366 17.7177 61.6072 17.6697 61.5927C16.8141 61.3031 15.8824 61.3105 14.9382 61.6117C14.6046 61.7193 14.2808 61.8568 13.9701 62.0228C12.4739 62.8191 11.1745 64.2709 10.3123 66.111C9.45016 67.9511 9.12322 69.9714 9.39036 71.7972C9.59998 73.2122 10.1419 74.3905 10.9546 75.2168Z" fill="white"/>
<path d="M5.96521 53.8132C5.24176 53.8776 4.51604 53.8126 3.81627 53.6207C3.77005 53.608 3.72844 53.5808 3.69653 53.5422C3.66462 53.5036 3.64378 53.4554 3.63657 53.4034C3.4747 52.2275 3.72993 50.9469 4.39244 49.6946C5.2444 48.0772 6.67868 46.6904 8.43195 45.7888C10.1852 44.8872 12.0589 44.574 13.7055 44.9055C15.1003 45.1872 16.2008 45.9025 16.883 46.946C16.911 46.9883 16.9271 47.039 16.9291 47.0918C16.9312 47.1447 16.9192 47.1973 16.8946 47.2434C16.8701 47.2894 16.834 47.3268 16.7908 47.351C16.7476 47.3751 16.6992 47.385 16.6516 47.3794C16.181 47.3212 15.7056 47.3129 15.2317 47.3545C13.7609 47.4868 11.6931 48.1995 10.1955 50.8476C9.17628 52.6424 7.7537 53.6405 5.96521 53.8132ZM17.5823 48.8487C17.5751 48.7968 17.5543 48.7487 17.5225 48.7102C17.4907 48.6716 17.4492 48.6444 17.4032 48.6316C16.7033 48.4391 15.9773 48.374 15.2537 48.4389C13.4652 48.6115 12.0426 49.6096 11.0266 51.4044C9.52848 54.0522 7.46128 54.7651 5.99046 54.8974C5.51659 54.939 5.04113 54.9307 4.57057 54.8726C4.52217 54.866 4.47277 54.8754 4.42866 54.8997C4.38456 54.924 4.34774 54.9621 4.32289 55.0091C4.29804 55.0561 4.28629 55.1099 4.28912 55.1636C4.29196 55.2174 4.30926 55.2686 4.33882 55.3109C4.8471 56.09 5.58849 56.6829 6.51076 57.0515C6.83734 57.1807 7.17354 57.2801 7.51599 57.3484C9.16323 57.6801 11.0363 57.3667 12.7896 56.4651C14.5428 55.5635 15.9776 54.1754 16.8291 52.5593C17.487 51.3051 17.7442 50.0246 17.5823 48.8487Z" fill="white"/>
<path fill-rule="evenodd" clip-rule="evenodd" d="M34.8583 13.7786C27.8832 14.7148 21.2541 18.8115 16.8016 24.9373C16.1447 25.841 15.3476 27.0291 15.03 27.5773C12.5105 31.928 10.9517 37.1494 10.624 42.3372L10.5371 43.7128L11.2279 43.8069C11.608 43.8586 12.2367 43.8804 12.6251 43.855L13.3313 43.8092L13.3624 43.2396C13.7544 36.0599 16.3012 29.7034 20.7352 24.8392C22.8883 22.477 24.7014 21.0075 27.1947 19.6034C30.3374 17.8336 34.3589 16.6848 37.4118 16.6848H38.4347V20.5292V24.3736H39.7829H41.1312V20.587V16.8004L41.8053 16.8963C43.1595 17.0885 45.4672 17.7235 46.8453 18.2832C54.806 21.5162 60.7827 28.9539 62.6886 37.9993C62.9439 39.2107 63.3376 41.9136 63.3431 42.4921C63.3453 42.7233 63.0956 42.7413 59.8784 42.7413H56.4115V44.3075V45.8738H59.891H63.3706L63.2848 46.7637C62.7638 52.1633 61.1692 56.7634 58.3617 60.9649C57.4196 62.3748 54.5423 65.5612 53.3297 66.5374C50.9621 68.4438 48.7728 69.6965 46.139 70.6516C43.8751 71.4728 42.5982 71.7577 40.2033 71.9764L38.3705 72.1438V73.6389V75.1339L39.7187 75.0896C48.2896 74.8083 56.6676 69.5061 61.5856 61.2514C62.5538 59.6262 64.0227 56.3965 64.5602 54.7108C67.189 46.4682 66.5119 37.1122 62.741 29.5707C57.1523 18.3933 46.294 12.2435 34.8583 13.7786ZM31.1944 24.5227C30.4869 25.455 30.294 27.1557 30.7429 28.5028C31.3079 30.1983 31.4107 30.9134 31.255 32.0624C31.1754 32.6497 31.0739 33.2905 31.0296 33.4863L30.9491 33.8422L31.2947 33.4912C31.4847 33.2983 31.8229 32.7286 32.0464 32.2256C32.6065 30.9639 32.6021 29.8758 32.0307 28.3123C31.5611 27.0274 31.4212 25.9025 31.5984 24.8364C31.6667 24.4253 31.6777 24.0888 31.623 24.0888C31.5683 24.0888 31.3754 24.284 31.1944 24.5227ZM34.794 29.5223C34.8542 29.8621 34.8988 30.6528 34.8929 31.2793C34.8843 32.1894 34.8149 32.5797 34.5477 33.221C34.1558 34.1619 33.8598 35.6108 33.9855 35.9739C34.0557 36.1768 34.2318 35.9861 34.8532 35.0353C35.9702 33.3259 36.165 32.8551 36.1714 31.8488C36.1786 30.72 35.6166 29.4573 34.9238 29.0463C34.7006 28.9138 34.6918 28.9459 34.794 29.5223ZM44.7266 33.4882C43.1479 33.7971 39.209 35.0391 36.8296 35.9783C31.2645 38.1747 25.9642 41.021 23.6165 43.0733C22.5089 44.0415 22.1508 45.2216 22.5926 46.4463C22.7074 46.7644 22.7797 47.0419 22.7531 47.0628C22.7267 47.0839 22.2936 47.3674 21.7907 47.693C20.6324 48.4431 19.6653 49.6021 19.2989 50.6797C18.7521 52.2872 19.142 54.6227 20.2062 56.1158C21.7761 58.3181 24.1931 58.8245 28.6634 57.8882L29.7673 57.657L30.9008 58.4509C31.5244 58.8875 32.4338 59.4238 32.9217 59.6428C33.4096 59.862 33.8096 60.0891 33.8105 60.1479C33.8113 60.2067 33.3344 60.2547 32.7505 60.2547C29.0777 60.2547 23.0156 61.0242 21.9714 61.623C19.8827 62.8207 27.1535 63.8143 38.0058 63.8143C44.9513 63.8143 49.6938 63.51 52.7413 62.869C55.9699 62.1899 54.9881 61.3489 50.2768 60.7576C48.1716 60.4933 44.7669 60.2552 43.0894 60.2549C42.3656 60.2548 41.7739 60.2067 41.7746 60.1479C41.7754 60.0891 42.2232 59.858 42.7698 59.6341C44.0455 59.1119 45.5902 58.1405 46.6679 57.1831C49.8892 54.3215 51.6172 49.3968 51.3606 43.8092C51.1915 40.1248 50.031 34.8338 49.1866 33.8975C48.5053 33.142 47.1381 33.0165 44.7266 33.4882ZM48.326 33.951C48.3237 34.0108 48.3882 34.1772 48.4691 34.3211C48.6632 34.6656 48.5344 35.1758 48.1333 35.6514C47.6452 36.2302 47.7423 36.3183 48.2577 35.7644C48.7541 35.2309 48.8527 34.6085 48.5186 34.1186C48.4149 33.9667 48.3282 33.8912 48.326 33.951ZM43.1215 36.8202C40.0964 37.6792 36.9625 38.8683 33.4276 40.4981C30.704 41.754 26.509 44.0881 26.6649 44.2608C26.7673 44.3746 29.583 43.6127 31.5566 42.9373C36.136 41.3703 42.3624 38.4628 44.9192 36.6975C45.3835 36.3768 45.402 36.3431 45.1118 36.3445C44.9352 36.3455 44.0396 36.5595 43.1215 36.8202ZM42.5437 39.2671C39.7557 40.6811 38.3495 41.3505 36.2518 42.2624C35.2984 42.6769 34.583 43.0184 34.6621 43.0211C34.9961 43.0326 37.4589 42.1353 38.9053 41.4749C40.2873 40.8439 44.2126 38.7274 44.7266 38.336C45.1994 37.9761 44.508 38.2708 42.5437 39.2671ZM33.184 38.8247C32.1081 39.3161 31.6642 39.5946 32.2712 39.3975C32.6952 39.2598 34.4969 38.4697 34.5689 38.3899C34.7392 38.201 34.1318 38.3918 33.184 38.8247ZM49.3841 42.6701C49.3816 46.8306 48.9932 49.5108 47.9945 52.2573C47.7508 52.9274 47.5526 53.5111 47.5539 53.5546C47.5602 53.7586 48.3983 52.1119 48.7356 51.2327C49.6286 48.9061 50.0573 45.0341 49.7477 42.0927C49.4791 39.5396 49.3858 39.6878 49.3841 42.6701ZM28.7891 40.9499C27.2752 41.6478 25.1891 43.0703 24.5062 43.8705C24.2004 44.2292 24.152 44.3663 24.2625 44.5618C24.3384 44.6961 24.539 44.8212 24.7084 44.84L25.0163 44.8742L24.7274 44.7378C24.5684 44.6628 24.4384 44.5473 24.4384 44.4811C24.4384 44.1384 25.3999 43.3978 28.0659 41.6875C29.8781 40.5248 30.0154 40.3848 28.7891 40.9499ZM21.4255 50.1079C20.8707 50.7231 20.586 51.4721 20.5882 52.311C20.5894 52.7253 20.6326 53.1378 20.6845 53.228C20.7364 53.3179 20.7793 52.9655 20.7798 52.4448C20.7807 51.4711 21.011 50.8389 21.6567 50.0385C22.0207 49.5873 21.8484 49.639 21.4255 50.1079ZM23.0563 50.1507C22.1339 50.7372 21.6126 51.5549 21.6163 52.4092C21.6231 54 22.6433 55.183 24.2628 55.4785C24.7299 55.5638 27.2368 55.3481 27.3594 55.2121C27.3851 55.1838 27.0127 54.6156 26.5321 53.9498C26.0515 53.2841 25.2827 52.0605 24.8237 51.231C24.3646 50.4015 23.9312 49.7223 23.8606 49.7217C23.79 49.7213 23.428 49.9142 23.0563 50.1507ZM26.7176 62.4847C26.806 62.5243 26.9504 62.5243 27.0387 62.4847C27.127 62.4452 27.0547 62.4129 26.8782 62.4129C26.7016 62.4129 26.6294 62.4452 26.7176 62.4847ZM28.0338 62.6832C28.4222 62.7437 29.6357 62.8271 30.7303 62.8684L32.7206 62.9436L30.7303 62.7515C29.6357 62.646 28.4222 62.5626 28.0338 62.5663L27.3276 62.573L28.0338 62.6832Z" fill="white"/>
<path d="M27.5339 32.8816C27.085 31.5345 27.2779 29.8339 27.9854 28.9015C28.1665 28.6629 28.3593 28.4677 28.414 28.4677C28.4687 28.4677 28.4577 28.8042 28.3894 29.2152C28.2122 30.2814 28.3521 31.4062 28.8217 32.6911C29.3931 34.2547 29.3975 35.3428 28.8374 36.6044C28.614 37.1075 28.2757 37.6772 28.0857 37.8701L27.7402 38.2211L27.8207 37.8651C27.865 37.6693 27.9664 37.0286 28.046 36.4413C28.2018 35.2922 28.0989 34.5772 27.5339 32.8816Z" fill="white"/>
<path d="M72.4717 45.0591L68.4237 41.523L68.71 38.408L73.3291 42.6758C73.4886 42.3302 73.706 41.9904 73.9814 41.6566C74.2673 41.3238 74.6267 41.0608 75.0594 40.8677C75.5026 40.6756 76.0299 40.6106 76.6414 40.6726C77.685 40.7785 78.4405 41.2981 78.908 42.2314C79.3861 43.1657 79.5524 44.4239 79.4069 46.0062L79.0116 50.3078L67.7216 49.1621L67.9789 46.3624L72.3115 46.802L72.4717 45.0591ZM77.436 45.9184C77.4803 45.4364 77.4709 45.0175 77.4079 44.6617C77.3437 44.3183 77.2147 44.0433 77.0209 43.8364C76.826 43.642 76.5546 43.5271 76.2067 43.4918C75.7112 43.4415 75.2983 43.593 74.9679 43.9463C74.6469 44.3129 74.4501 44.8918 74.3774 45.6829L74.2564 46.9994L77.3082 47.3091L77.436 45.9184Z" fill="white"/>
<path d="M68.0604 36.329L66.5527 30.4859L67.8713 30.1103L68.8882 31.4997L75.9717 29.4817L76.1814 27.7428L77.5 27.3672L79.0077 33.2103L77.6891 33.5859L76.6722 32.1965L69.5887 34.2145L69.379 35.9534L68.0604 36.329Z" fill="white"/>
<path d="M65.0679 28.2139L63.6428 25.8329L67.7847 23.0959L65.1138 18.6334L60.9719 21.3703L59.5468 18.9892L69.1484 12.6445L70.5735 15.0256L66.8082 17.5137L69.4791 21.9763L73.2445 19.4882L74.6696 21.8692L65.0679 28.2139Z" fill="white"/>
<path d="M61.2592 12.2782C60.9082 13.1249 60.4751 13.8431 59.96 14.4327C59.4599 15.0171 58.8787 15.4551 58.2164 15.7467C57.5649 16.0433 56.832 16.163 56.0178 16.1059C55.2143 16.0538 54.3413 15.812 53.3986 15.3806C52.4559 14.9491 51.6874 14.4396 51.093 13.852C50.5137 13.2592 50.098 12.6137 49.8459 11.9158C49.6089 11.2125 49.5204 10.462 49.5805 9.66407C49.6513 8.87114 49.8623 8.05128 50.2133 7.2045C50.6828 6.07206 51.2859 5.17682 52.0228 4.51877C52.7705 3.86568 53.6459 3.49556 54.6488 3.4084C55.6669 3.316 56.8098 3.55991 58.0775 4.14013C59.3345 4.7154 60.272 5.42365 60.8901 6.26489C61.5125 7.09592 61.8432 8.0241 61.8822 9.04941C61.9363 10.0695 61.7287 11.1457 61.2592 12.2782ZM52.7912 8.40257C52.4741 9.16773 52.3042 9.87288 52.2817 10.518C52.2592 11.1632 52.4033 11.7328 52.7141 12.2271C53.0249 12.7213 53.5216 13.1246 54.2042 13.4371C54.9086 13.7594 55.5333 13.8694 56.0786 13.7669C56.6346 13.6694 57.1244 13.3898 57.5478 12.9282C57.982 12.4715 58.3578 11.8606 58.675 11.0954C59.1529 9.94256 59.2996 8.93552 59.1152 8.0743C58.9308 7.21307 58.3184 6.54442 57.2782 6.06834C56.5847 5.75096 55.96 5.64101 55.4039 5.7385C54.8478 5.836 54.3527 6.11309 53.9184 6.56979C53.4842 7.02648 53.1084 7.6374 52.7912 8.40257Z" fill="white"/>
<path d="M38.9091 12.2054L36.3464 2.69802L36.2756 2.69398C36.2759 2.91689 36.2764 3.25125 36.2771 3.69706C36.2777 4.14287 36.2766 4.62201 36.2738 5.13449C36.2716 5.63586 36.2599 6.09211 36.2387 6.50324L35.9528 12.0368L33.563 11.9005L34.1777 0L37.8244 0.207964L40.346 9.47898L40.3991 9.48201L44.0379 0.562311L47.6845 0.770276L47.0698 12.6708L44.5738 12.5285L44.8648 6.89488C44.8843 6.51708 44.9126 6.08407 44.9496 5.59583C44.9985 5.10827 45.04 4.64814 45.0742 4.21546C45.1208 3.77234 45.1557 3.44001 45.179 3.21845L45.1082 3.21441L41.3697 12.3457L38.9091 12.2054Z" fill="white"/>
<path d="M24.7399 2.30055C26.2419 1.63253 27.4596 1.45348 28.393 1.76338C29.3331 2.0582 30.0178 2.73849 30.4472 3.80426C30.6412 4.2859 30.7508 4.78094 30.7759 5.28936C30.7969 5.78754 30.698 6.29071 30.4792 6.79887C30.2671 7.29195 29.9119 7.76412 29.4135 8.21538C28.9151 8.66665 28.2414 9.08106 27.3924 9.45864L26.3312 9.9306L27.9041 13.835L25.4388 14.9314L21.0176 3.95605L24.7399 2.30055ZM25.3771 4.26472L24.2506 4.76573L25.5634 8.02452L26.3797 7.66147C26.8477 7.45332 27.2277 7.21785 27.5197 6.95506C27.8117 6.69228 28.0007 6.39677 28.0866 6.06853C28.1726 5.74029 28.1371 5.38147 27.9802 4.99205C27.7614 4.44892 27.4426 4.11944 27.0238 4.00363C26.6008 3.87757 26.0519 3.9646 25.3771 4.26472Z" fill="white"/>
<path d="M20.5626 18.0757L17.9573 16.8523L14.8179 20.3985L16.1674 23.0404L14.1993 25.2636L8.90215 13.6752L11.1359 11.1519L22.5307 15.8525L20.5626 18.0757ZM13.4866 14.7215C13.3146 14.6382 13.0955 14.5343 12.8295 14.41C12.5635 14.2857 12.2936 14.1576 12.0198 14.0257C11.7461 13.8938 11.5115 13.7748 11.3162 13.6687C11.431 13.8657 11.5685 14.1188 11.7287 14.428C11.8892 14.7206 12.0419 15.0055 12.1869 15.2829C12.3322 15.5436 12.4314 15.7339 12.4845 15.8536L13.7995 18.4364L16.0454 15.8995L13.4866 14.7215Z" fill="white"/>
<path d="M4.17285 21.2322L5.86669 22.3212L3.09096 27.0881L11.0723 32.2192L9.67523 34.6185L0 28.3984L4.17285 21.2322Z" fill="white"/>
</svg>
